<svg xmlns="http://www.w3.org/2000/svg" xmlns:xlink="http://www.w3.org/1999/xlink" width="16" height="16" viewBox="0 0 16 16"><g transform="translate(0 0) scale(1.0000)"><g fill="#7f849c"><rect x="4" y="2" width="1" height="1"/><rect x="5" y="3" width="1" height="1"/><rect x="11" y="2" width="1" height="1"/><rect x="10" y="3" width="1" height="1"/></g><rect x="2" y="0" width="2" height="2" fill="#f9e2af"/><rect x="12" y="0" width="2" height="2" fill="#89dceb"/><rect x="0" y="4" width="16" height="12" rx="3.5" fill="#11111b"/><rect x="1" y="5" width="14" height="10" rx="2.5" fill="#cba6f7"/><rect x="2" y="5" width="12" height="1" fill="#e5cffc"/><rect x="3" y="7" width="10" height="6" rx="1" fill="#11111b"/><g fill="#89dceb"><rect x="5" y="8" width="2" height="3"/><rect x="9" y="8" width="2" height="3"/></g><rect x="7" y="12" width="2" height="1" fill="#a6e3a1"/></g></svg>